<mxfile host="app.diagrams.net" modified="2024-05-02T04:45:21.135Z" agent="Mozilla/5.0 (Macintosh; Intel Mac OS X 10_15_7) AppleWebKit/537.36 (KHTML, like Gecko) Chrome/123.0.0.0 Safari/537.36" version="24.3.0" etag="Dp_0FqvxLmdDM2jcQBMV" type="github">
  <diagram name="Page-1" id="MjfYdRnuBHXMCo2Bp_xK">
    <mxGraphModel>
      <root>
        <mxCell id="0" />
        <mxCell id="1" parent="0" />
      </root>
    </mxGraphModel>
  </diagram>
</mxfile>
